HIERARCHY
ROOT hip
{
  OFFSET 0.0 0.0 0.0
  CHANNELS 6 Xposition Yposition Zposition Zrotation Yrotation Xrotation
  JOINT abdomen
  {
    OFFSET 0.0 20.6881 -0.73152
    CHANNELS 3 Zrotation Xrotation Yrotation
    JOINT chest
    {
      OFFSET 0.0 11.7043 -0.48768
      CHANNELS 3 Zrotation Xrotation Yrotation
      JOINT neck
      {
        OFFSET 0.0 22.1894 -2.19456
        CHANNELS 3 Zrotation Xrotation Yrotation
        JOINT head
        {
          OFFSET -0.24384 7.07133 1.2192
          CHANNELS 3 Zrotation Xrotation Yrotation
          JOINT leftEye
          {
            OFFSET 4.14528 8.04674 8.04672
            CHANNELS 3 Zrotation Xrotation Yrotation
            End Site
            {
              OFFSET 1.0 0.0 0.0
            }
          }
          JOINT rightEye
          {
            OFFSET -3.6576 8.04674 8.04672
            CHANNELS 3 Zrotation Xrotation Yrotation
            End Site
            {
              OFFSET 1.0 0.0 0.0
            }
          }
        }
      }
      JOINT rCollar
      {
        OFFSET -2.68224 19.2634 -4.8768
        CHANNELS 3 Zrotation Xrotation Yrotation
        JOINT rShldr
        {
          OFFSET -8.77824 -1.95073 1.46304
          CHANNELS 3 Zrotation Xrotation Yrotation
          JOINT rForeArm
          {
            OFFSET -28.1742 -1.7115 0.48768
            CHANNELS 3 Zrotation Xrotation Yrotation
            JOINT rHand
            {
              OFFSET -22.5879 0.773209 7.07136
              CHANNELS 3 Zrotation Xrotation Yrotation
              JOINT rThumb1
              {
                OFFSET -1.2192 -0.487915 3.41376
                CHANNELS 3 Zrotation Xrotation Yrotation
                JOINT rThumb2
                {
                  OFFSET -3.37035 -0.52449 3.41376
                  CHANNELS 3 Zrotation Xrotation Yrotation
                  End Site
                  {
                    OFFSET -1.78271 -1.18214 1.43049
                  }
                }
              }
              JOINT rIndex1
              {
                OFFSET -7.75947 0.938293 5.60832
                CHANNELS 3 Zrotation Xrotation Yrotation
                JOINT rIndex2
                {
                  OFFSET -2.54057 -0.884171 1.56538
                  CHANNELS 3 Zrotation Xrotation Yrotation
                  End Site
                  {
                    OFFSET -1.62519 -0.234802 1.16502
                  }
                }
              }
              JOINT rMid1
              {
                OFFSET -8.24714 1.18213 3.41376
                CHANNELS 3 Zrotation Xrotation Yrotation
                JOINT rMid2
                {
                  OFFSET -3.10165 -0.590103 1.0647
                  CHANNELS 3 Zrotation Xrotation Yrotation
                  End Site
                  {
                    OFFSET -2.48547 -0.328903 0.83742
                  }
                }
              }
              JOINT rRing1
              {
                OFFSET -8.82822 0.546677 1.51678
                CHANNELS 3 Zrotation Xrotation Yrotation
                JOINT rRing2
                {
                  OFFSET -2.60934 -0.819778 -0.0198488
                  CHANNELS 3 Zrotation Xrotation Yrotation
                  End Site
                  {
                    OFFSET -2.33842 -0.294052 0.168128
                  }
                }
              }
              JOINT rPinky1
              {
                OFFSET -8.27202 -0.0477905 -0.4584
                CHANNELS 3 Zrotation Xrotation Yrotation
                JOINT rPinky2
                {
                  OFFSET -1.82734 -0.647385 -0.700984
                  CHANNELS 3 Zrotation Xrotation Yrotation
                  End Site
                  {
                    OFFSET -1.69225 -0.51767 -0.607171
                  }
                }
              }
            }
          }
        }
      }
      JOINT lCollar
      {
        OFFSET 2.68224 19.2634 -4.8768
        CHANNELS 3 Zrotation Xrotation Yrotation
        JOINT lShldr
        {
          OFFSET 8.77824 -1.95073 1.46304
          CHANNELS 3 Zrotation Xrotation Yrotation
          JOINT lForeArm
          {
            OFFSET 28.1742 -1.7115 0.48768
            CHANNELS 3 Zrotation Xrotation Yrotation
            JOINT lHand
            {
              OFFSET 22.5879 0.773209 7.07136
              CHANNELS 3 Zrotation Xrotation Yrotation
              JOINT lThumb1
              {
                OFFSET 1.2192 -0.487915 3.41376
                CHANNELS 3 Zrotation Xrotation Yrotation
                JOINT lThumb2
                {
                  OFFSET 3.37035 -0.52449 3.41376
                  CHANNELS 3 Zrotation Xrotation Yrotation
                  End Site
                  {
                    OFFSET 1.78271 -1.18214 1.43049
                  }
                }
              }
              JOINT lIndex1
              {
                OFFSET 7.75947 0.938293 5.60832
                CHANNELS 3 Zrotation Xrotation Yrotation
                JOINT lIndex2
                {
                  OFFSET 2.54057 -0.884171 1.56538
                  CHANNELS 3 Zrotation Xrotation Yrotation
                  End Site
                  {
                    OFFSET 1.62519 -0.234802 1.16502
                  }
                }
              }
              JOINT lMid1
              {
                OFFSET 8.24714 1.18213 3.41376
                CHANNELS 3 Zrotation Xrotation Yrotation
                JOINT lMid2
                {
                  OFFSET 3.10165 -0.590103 1.0647
                  CHANNELS 3 Zrotation Xrotation Yrotation
                  End Site
                  {
                    OFFSET 2.48547 -0.328903 0.83742
                  }
                }
              }
              JOINT lRing1
              {
                OFFSET 8.82822 0.546677 1.51678
                CHANNELS 3 Zrotation Xrotation Yrotation
                JOINT lRing2
                {
                  OFFSET 2.60934 -0.819778 -0.0198488
                  CHANNELS 3 Zrotation Xrotation Yrotation
                  End Site
                  {
                    OFFSET 2.33842 -0.294052 0.168128
                  }
                }
              }
              JOINT lPinky1
              {
                OFFSET 8.27202 -0.0477905 -0.4584
                CHANNELS 3 Zrotation Xrotation Yrotation
                JOINT lPinky2
                {
                  OFFSET 1.82734 -0.647385 -0.700984
                  CHANNELS 3 Zrotation Xrotation Yrotation
                  End Site
                  {
                    OFFSET 1.69225 -0.51767 -0.607171
                  }
                }
              }
            }
          }
        }
      }
    }
  }
  JOINT rButtock
  {
    OFFSET -8.77824 4.35084 1.2192
    CHANNELS 3 Zrotation Xrotation Yrotation
    JOINT rThigh
    {
      OFFSET 0.0 -1.70687 -2.19456
      CHANNELS 3 Zrotation Xrotation Yrotation
      JOINT rShin
      {
        OFFSET 0.0 -36.8199 0.73152
        CHANNELS 3 Zrotation Xrotation Yrotation
        JOINT rFoot
        {
          OFFSET 0.73152 -45.1104 -5.12064
          CHANNELS 3 Zrotation Xrotation Yrotation
          End Site
          {
            OFFSET -1.1221 -3.69964 12.103
          }
        }
      }
    }
  }
  JOINT lButtock
  {
    OFFSET 8.77824 4.35084 1.2192
    CHANNELS 3 Zrotation Xrotation Yrotation
    JOINT lThigh
    {
      OFFSET 0.0 -1.70687 -2.19456
      CHANNELS 3 Zrotation Xrotation Yrotation
      JOINT lShin
      {
        OFFSET 0.0 -36.8199 0.73152
        CHANNELS 3 Zrotation Xrotation Yrotation
        JOINT lFoot
        {
          OFFSET -0.73152 -45.1104 -5.12064
          CHANNELS 3 Zrotation Xrotation Yrotation
          End Site
          {
            OFFSET 1.1221 -3.69964 12.103
          }
        }
      }
    }
  }
}
MOTION
Frames: 6
Frame Time: 0.00833333
-7.934299999999993 84.7027 -7.49389 -177.629 -80.9898 174.922 -2.30618 6.94358 4.76427 -0.396919 -0.194167 1.33896 7.17774 10.3664 1.76921 -4.21912 -26.2246 1.80983 -0.0 0.0 0.0 -0.0 0.0 0.0 -1.49785e-14 -1.58264e-13 -1.43028e-14 82.1145 37.0059 -0.81905 -14.0145 -6.96615 25.5834 -0.459195 -18.9009 -2.75816 -3.71801e-11 -1.4796e-10 1.02425e-09 -7.6003e-11 -2.58605e-10 1.7706e-09 -3.71736e-11 -1.47962e-10 1.02424e-09 7.73091 5.47488 0.417314 -3.71773e-11 -1.47963e-10 1.02424e-09 2.90554 0.965183 0.102902 -3.71773e-11 -1.47962e-10 1.02425e-09 10.2786 0.731801 0.0259123 -3.71861e-11 -1.4796e-10 1.02425e-09 2.22167 -0.733487 -0.20892 -1.50242e-14 -1.58258e-13 -1.45559e-14 -76.4579 26.2464 2.4083 14.0158 -6.9662 -25.5878 0.00706469 2.35814 -0.331618 1.98727e-10 2.37748e-10 -4.28839e-10 3.40948e-10 4.11859e-10 -7.41892e-10 1.98723e-10 2.37748e-10 -4.28839e-10 -7.73091 5.47488 -0.417314 1.98736e-10 2.37745e-10 -4.28864e-10 -2.90554 0.965183 -0.102902 1.98717e-10 2.37747e-10 -4.28843e-10 -10.2786 0.731801 -0.0259123 1.98728e-10 2.37749e-10 -4.28849e-10 -2.22167 -0.733487 0.20892 -2.03217e-16 0.0 -3.88251e-19 5.32918 -5.55247 15.8418 -0.00403014 22.5804 0.777863 -19.1702 -23.9228 -36.3264 2.03217e-16 0.0 3.88251e-19 -1.65059 -4.00634 -17.0062 0.0662613 22.0424 -0.723461 13.9544 -18.5117 31.6497
-7.924700000000001 84.6903 -7.48316 -178.218 -81.0155 175.569 -2.35894 6.95828 4.77249 -0.423299 -0.176405 1.33931 7.21612 10.3463 1.82061 -4.28298 -26.2402 1.89077 -0.0 0.0 0.0 -0.0 0.0 0.0 -2.75655e-15 -2.15282e-12 -1.18327e-13 82.0813 37.0333 -0.785047 -14.0262 -6.97564 25.607 -0.461173 -18.9398 -2.76427 -2.1421e-12 -5.68047e-12 9.64777e-10 -1.42008e-11 -1.22324e-11 1.66844e-09 -2.13534e-12 -5.68484e-12 9.64777e-10 7.73091 5.47488 0.417314 -2.13892e-12 -5.68375e-12 9.64774e-10 2.90554 0.965183 0.102902 -2.13928e-12 -5.68355e-12 9.64776e-10 10.2786 0.731801 0.0259123 -2.14827e-12 -5.68127e-12 9.64777e-10 2.22167 -0.733487 -0.20892 -2.80966e-15 -2.15281e-12 -1.18575e-13 -76.3673 26.2098 2.37996 14.0409 -6.98747 -25.6364 0.00809949 2.56874 -0.361257 4.49347e-10 -2.9207e-11 -6.22511e-10 7.7362e-10 -5.02591e-11 -1.07769e-09 4.49343e-10 -2.92058e-11 -6.22511e-10 -7.73091 5.47488 -0.417314 4.49358e-10 -2.92095e-11 -6.2254e-10 -2.90554 0.965183 -0.102902 4.49336e-10 -2.92067e-11 -6.22515e-10 -10.2786 0.731801 -0.0259123 4.49348e-10 -2.9205e-11 -6.2252e-10 -2.22167 -0.733487 0.20892 -2.03217e-16 0.0 -3.88251e-19 5.26265 -5.61993 15.7596 -0.00524777 22.6055 0.77467 -19.0208 -23.8103 -36.1909 2.03217e-16 0.0 3.88251e-19 -1.68189 -4.01526 -16.9567 0.0665025 22.0272 -0.723392 13.9667 -18.5341 31.6527
-7.946799999999996 84.7009 -7.52204 -178.188 -80.8943 175.415 -2.35441 7.03272 4.71185 -0.448762 -0.163237 1.32068 7.26411 10.3098 1.91658 -4.36136 -26.2919 2.0533 -0.0 0.0 0.0 -0.0 0.0 0.0 2.54404e-14 -3.78197e-12 -1.98303e-13 82.0121 37.0898 -0.713888 -14.0471 -6.99253 25.6489 -0.457793 -18.8724 -2.7537 -1.81709e-10 1.54963e-10 9.5618e-10 -3.23485e-10 2.67371e-10 1.6511e-09 -1.81702e-10 1.54958e-10 9.56179e-10 7.73091 5.47488 0.417314 -1.81706e-10 1.54959e-10 9.56176e-10 2.90554 0.965183 0.102902 -1.81704e-10 1.54959e-10 9.56177e-10 10.2786 0.731801 0.0259123 -1.81716e-10 1.54962e-10 9.56179e-10 2.22167 -0.733487 -0.20892 2.53546e-14 -3.78196e-12 -1.98551e-13 -76.4497 25.7653 2.56666 14.1886 -7.10983 -25.9298 0.0103368 2.9766 -0.418681 5.42028e-10 -2.80863e-10 -9.46046e-10 9.32653e-10 -4.85716e-10 -1.63773e-09 5.42023e-10 -2.8086e-10 -9.46043e-10 -7.73091 5.47488 -0.417314 5.42037e-10 -2.80863e-10 -9.46069e-10 -2.90554 0.965183 -0.102902 5.42014e-10 -2.80861e-10 -9.46047e-10 -10.2786 0.731801 -0.0259123 5.42028e-10 -2.80859e-10 -9.46053e-10 -2.22167 -0.733487 0.20892 -2.03217e-16 0.0 -3.88251e-19 5.26355 -5.6286 15.7408 -0.00660044 22.6199 0.771839 -18.9291 -23.7312 -36.1177 2.03217e-16 0.0 3.88251e-19 -1.66599 -3.97735 -16.9099 0.0662576 22.0233 -0.723819 13.9883 -18.5394 31.6894
-7.955699999999993 84.7043 -7.5814 -177.508 -80.7672 174.669 -2.3183 7.14785 4.59998 -0.473163 -0.154319 1.2877 7.31061 10.2672 2.03521 -4.43335 -26.3723 2.26107 -0.0 0.0 0.0 -0.0 0.0 0.0 6.55296e-14 -5.40643e-12 -2.75015e-13 81.9154 37.1709 -0.615219 -14.0753 -7.0153 25.7056 -0.45063 -18.7287 -2.73117 -5.02316e-10 3.51453e-10 9.65254e-10 -8.76362e-10 6.10068e-10 1.66226e-09 -5.02307e-10 3.51448e-10 9.65251e-10 7.73091 5.47488 0.417314 -5.02314e-10 3.51447e-10 9.6525e-10 2.90554 0.965183 0.102902 -5.02307e-10 3.51449e-10 9.6525e-10 10.2786 0.731801 0.0259123 -5.02322e-10 3.51452e-10 9.65253e-10 2.22167 -0.733487 -0.20892 6.5393e-14 -5.40641e-12 -2.75264e-13 -76.6419 25.0346 2.89522 14.4159 -7.29836 -26.3876 0.0145248 3.52709 -0.496286 5.59683e-10 -5.63138e-10 -1.38631e-09 9.61519e-10 -9.74066e-10 -2.39953e-09 5.59677e-10 -5.63133e-10 -1.3863e-09 -7.73091 5.47488 -0.417314 5.59687e-10 -5.63134e-10 -1.38632e-09 -2.90554 0.965183 -0.102902 5.59667e-10 -5.63132e-10 -1.3863e-09 -10.2786 0.731801 -0.0259123 5.59682e-10 -5.6313e-10 -1.38631e-09 -2.22167 -0.733487 0.20892 -2.03217e-16 0.0 -3.88251e-19 5.30049 -5.60213 15.7548 -0.00814091 22.6301 0.76911 -18.8663 -23.669 -36.0755 2.03217e-16 0.0 3.88251e-19 -1.62459 -3.90781 -16.862 0.0656962 22.0256 -0.724482 14.0148 -18.5328 31.7469
-7.949100000000001 84.6967 -7.61736 -177.268 -80.6738 174.451 -2.27002 7.27524 4.47808 -0.497316 -0.152258 1.25201 7.35227 10.2306 2.14434 -4.49945 -26.467 2.45212 -0.0 0.0 0.0 -0.0 0.0 0.0 1.01305e-13 -6.65429e-12 -3.34411e-13 81.8121 37.2613 -0.522916 -14.1087 -7.04244 25.773 -0.440223 -18.5202 -2.6985 -8.19613e-10 5.45798e-10 9.61453e-10 -1.42338e-09 9.49159e-10 1.65109e-09 -8.19603e-10 5.45794e-10 9.61447e-10 7.73091 5.47488 0.417314 -8.19611e-10 5.45792e-10 9.6145e-10 2.90554 0.965183 0.102902 -8.19601e-10 5.45795e-10 9.61448e-10 10.2786 0.731801 0.0259123 -8.19619e-10 5.45797e-10 9.61453e-10 2.22167 -0.733487 -0.20892 1.01125e-13 -6.65428e-12 -3.34659e-13 -76.8261 24.2282 3.22704 14.6518 -7.49484 -26.8704 0.0194311 4.01332 -0.564944 5.27191e-10 -7.94321e-10 -1.78399e-09 9.03818e-10 -1.37394e-09 -3.08746e-09 5.27183e-10 -7.94314e-10 -1.78397e-09 -7.73091 5.47488 -0.417314 5.2719e-10 -7.94314e-10 -1.78398e-09 -2.90554 0.965183 -0.102902 5.27173e-10 -7.94312e-10 -1.78398e-09 -10.2786 0.731801 -0.0259123 5.27189e-10 -7.9431e-10 -1.78398e-09 -2.22167 -0.733487 0.20892 -2.03217e-16 0.0 -3.88251e-19 5.3484 -5.57188 15.7679 -0.00959474 22.6381 0.766347 -18.8039 -23.6054 -36.0362 2.03217e-16 0.0 3.88251e-19 -1.57275 -3.83775 -16.8131 0.0650498 22.0316 -0.725184 14.0385 -18.5215 31.8034
-7.9392 84.686 -7.61833 -177.775 -80.618 175.009 -2.22953 7.3864 4.3874 -0.522042 -0.159659 1.22528 7.38555 10.2125 2.21186 -4.56083 -26.562 2.56416 -0.0 0.0 0.0 -0.0 0.0 0.0 1.16563e-13 -7.15365e-12 -3.62434e-13 81.7236 37.3459 -0.471077 -14.1455 -7.07243 25.8472 -0.427135 -18.2584 -2.65755 -9.89253e-10 7.00008e-10 9.14231e-10 -1.7151e-09 1.21795e-09 1.56678e-09 -9.89242e-10 7.00005e-10 9.14222e-10 7.73091 5.47488 0.417314 -9.89252e-10 7.00002e-10 9.14228e-10 2.90554 0.965183 0.102902 -9.89238e-10 7.00005e-10 9.14225e-10 10.2786 0.731801 0.0259123 -9.89259e-10 7.00008e-10 9.14231e-10 2.22167 -0.733487 -0.20892 1.16371e-13 -7.15363e-12 -3.62683e-13 -76.8967 23.5574 3.42825 14.8293 -7.64349 -27.238 0.0219783 4.22837 -0.59535 4.69429e-10 -8.92702e-10 -1.97977e-09 8.0315e-10 -1.54398e-09 -3.42591e-09 4.69421e-10 -8.92694e-10 -1.97976e-09 -7.73091 5.47488 -0.417314 4.69425e-10 -8.92694e-10 -1.97976e-09 -2.90554 0.965183 -0.102902 4.69411e-10 -8.92692e-10 -1.97976e-09 -10.2786 0.731801 -0.0259123 4.69427e-10 -8.92689e-10 -1.97977e-09 -2.22167 -0.733487 0.20892 -2.03217e-16 0.0 -3.88251e-19 5.38228 -5.56923 15.7465 -0.0106869 22.6464 0.763413 -18.714 -23.5216 -35.9716 2.03217e-16 0.0 3.88251e-19 -1.52546 -3.7983 -16.7632 0.0645496 22.0387 -0.725731 14.0519 -18.5129 31.8373
